<svg width="214" height="24" viewBox="0 0 214 24" fill="none" xmlns="http://www.w3.org/2000/svg">
<path d="M138.948 14.6478C138.784 14.1842 138.514 13.7653 138.16 13.4246C137.846 13.1591 137.489 12.9507 137.103 12.809L136.867 12.7301C136.322 12.5819 135.759 12.5102 135.195 12.517H133.515C133.34 12.5401 133.162 12.5237 132.995 12.4691C132.827 12.4145 132.673 12.323 132.545 12.2013C132.422 12.0576 132.34 11.8829 132.309 11.6962C132.3 11.5911 132.3 11.4855 132.309 11.3805V11.1911C132.29 10.8458 132.394 10.5051 132.601 10.2282C132.694 10.1192 132.813 10.0351 132.948 9.98359C133.172 9.90102 133.41 9.86347 133.649 9.8731H133.988C134.225 9.8731 134.525 9.8731 134.887 9.8731L136.023 9.9757L137.206 10.0941L138.026 10.2598L138.333 9.39957L138.688 8.39728L138.901 7.79747L137.892 7.66331L136.669 7.52125C136.236 7.4739 135.794 7.44233 135.345 7.40287C134.895 7.36341 134.477 7.36341 134.083 7.36341H133.634C133.02 7.3576 132.409 7.44271 131.82 7.61595C131.309 7.77765 130.839 8.04672 130.44 8.40517C130.047 8.73802 129.738 9.16013 129.541 9.63634C129.319 10.1796 129.209 10.7621 129.218 11.3489V11.5936C129.191 12.5678 129.519 13.5184 130.14 14.269C130.413 14.5728 130.75 14.8127 131.126 14.9714C131.71 15.2157 132.339 15.334 132.971 15.3187H134.375C134.851 15.2788 135.328 15.3804 135.747 15.6107C135.852 15.6812 135.938 15.7759 135.999 15.8869C136.122 16.1506 136.179 16.4406 136.165 16.7314V17.0707C136.176 17.2896 136.136 17.5082 136.047 17.7084C135.958 17.9087 135.822 18.085 135.652 18.223C135.475 18.3631 135.271 18.4652 135.053 18.5229C134.707 18.604 134.352 18.6438 133.996 18.6413C133.585 18.6417 133.174 18.6179 132.766 18.5702C132.364 18.5308 131.978 18.4755 131.623 18.4203C131.268 18.365 130.945 18.3019 130.637 18.2309L130.022 18.073L129.896 18.4203L129.147 20.5196C129.707 20.6695 130.416 20.8195 131.268 20.9615C132.05 21.0923 132.841 21.1636 133.634 21.1746H134.028C135.424 21.2835 136.816 20.9103 137.971 20.1171C138.392 19.7633 138.726 19.3174 138.947 18.8138C139.169 18.3102 139.272 17.7625 139.248 17.2128V16.4236C139.257 15.8183 139.155 15.2166 138.948 14.6478Z" fill="#160F3E"/>
<path d="M160.98 7.48965V15.879L155.918 7.48965H152.953V21.0168H155.941V12.5169L160.941 21.0168H163.961V7.48965H160.98Z" fill="#160F3E"/>
<path d="M173.573 7.48965H170.111L165.38 21.0168H168.779L169.567 18.5623H174.117L174.906 21.0168H178.304L173.573 7.48965ZM170.111 16.1079L171.83 10.2598L173.549 16.1157L170.111 16.1079Z" fill="#160F3E"/>
<path d="M184.25 12.9274V15.3818H186.797V18.3414C186.623 18.3887 186.41 18.4361 186.174 18.4755C185.937 18.515 185.693 18.5623 185.448 18.5939C185.204 18.6255 184.967 18.6649 184.739 18.6886H184.139C183.847 18.6912 183.555 18.6754 183.264 18.6413C183.058 18.6242 182.859 18.5534 182.689 18.4361C182.528 18.3223 182.408 18.1587 182.35 17.9704C182.28 17.7134 182.248 17.4475 182.255 17.1812V12.1145C182.251 11.769 182.269 11.4237 182.31 11.0806C182.33 10.8241 182.426 10.5795 182.586 10.3782C182.743 10.1808 182.958 10.0373 183.201 9.96783C183.56 9.86849 183.932 9.82327 184.305 9.83366C184.849 9.83366 185.472 9.83366 186.166 9.92837C186.86 10.0231 187.562 10.0783 188.476 10.2204L189.328 7.85274C188.35 7.67122 187.396 7.54495 186.474 7.45024C185.551 7.35553 184.723 7.32397 183.966 7.32397C183.21 7.3092 182.456 7.40221 181.727 7.60019C181.172 7.73899 180.666 8.02598 180.262 8.43049C179.857 8.835 179.571 9.34183 179.432 9.8968C179.247 10.5728 179.16 11.2717 179.172 11.9724V17.2365C179.147 17.9135 179.274 18.5875 179.542 19.2095C179.761 19.6882 180.094 20.1056 180.512 20.4249C180.923 20.7223 181.394 20.927 181.892 21.0247C182.411 21.1316 182.94 21.1845 183.469 21.1825C184.61 21.1994 185.749 21.0962 186.868 20.8747C187.83 20.6792 188.765 20.3664 189.651 19.9435V12.9274H184.25Z" fill="#160F3E"/>
<path d="M198.98 7.48965H195.526L190.795 21.0168H194.209L194.998 18.5623H199.532L200.32 21.0168H203.719L198.98 7.48965ZM195.526 16.1079L197.237 10.2598L198.956 16.1157L195.526 16.1079Z" fill="#160F3E"/>
<path d="M203.104 7.48965V10.023H206.865V21.0168H209.94V10.023H213.032L213.946 7.48965H203.104Z" fill="#160F3E"/>
<path d="M144.492 15.2634H149.357L149.428 15.0345L150.264 12.73H144.492V10.023H149.854L150.761 7.48965H141.409V21.0168H150.642V18.4834H144.492V15.2634Z" fill="#160F3E"/>
<path d="M53.4391 7.48968V16.5735C53.4431 16.8727 53.4167 17.1715 53.3602 17.4653C53.3163 17.7218 53.2197 17.9664 53.0764 18.1835C52.9177 18.3902 52.7048 18.5487 52.4613 18.6413C52.1272 18.7589 51.7745 18.8151 51.4204 18.807H50.8685C50.5143 18.8151 50.1617 18.7589 49.8276 18.6413C49.5864 18.5486 49.376 18.39 49.2204 18.1835C49.0713 17.9687 48.9716 17.7234 48.9286 17.4653C48.8761 17.171 48.8497 16.8725 48.8498 16.5735V7.48968H45.7666V16.5183C45.7381 17.3862 45.9052 18.2493 46.2555 19.0438C46.4438 19.4394 46.7123 19.7915 47.044 20.0776C48.0911 20.8804 49.3949 21.2733 50.7107 21.1825H51.5624C52.8782 21.2725 54.1817 20.8797 55.2291 20.0776C56.0807 19.3437 56.4986 18.1598 56.4986 16.5183V7.48968H53.4391ZM47.3437 3.37V6.03753L50.3638 5.41406V3.37H47.3437ZM52.0749 3.37V6.03753L55.095 5.41406V3.37H52.0749Z" fill="#160F3E"/>
<path d="M67.1597 15.5081C67.8364 15.2875 68.425 14.8561 68.8393 14.2769C69.2345 13.6564 69.4273 12.9283 69.3912 12.1934V11.4042C69.4216 10.685 69.2924 9.96803 69.0127 9.30486C68.7825 8.82104 68.4221 8.41107 67.9719 8.12104C67.4921 7.82812 66.9535 7.64486 66.3948 7.58438C65.7569 7.49989 65.1142 7.4577 64.4707 7.4581H59.085V21.0168H62.1603V15.7843H64.1396L66.6392 21.0168H70.1009L67.1597 15.5081ZM66.3159 12.2407C66.3284 12.4086 66.3062 12.5773 66.2505 12.7362C66.1949 12.8951 66.1071 13.0408 65.9926 13.1641C65.6948 13.3898 65.3239 13.4967 64.9518 13.464H62.1603V9.9678H64.6915C65.1425 9.92763 65.5947 10.0297 65.9847 10.2598C66.1076 10.3765 66.2025 10.5194 66.2626 10.6779C66.3226 10.8364 66.3463 11.0064 66.3317 11.1753L66.3159 12.2407Z" fill="#160F3E"/>
<path d="M78.5225 13.1167L83.2065 7.48965H79.5949L74.8243 13.685V7.48965H71.7884V21.0168H74.8637V17.1654L76.4881 15.2397L79.7526 21.0168H83.3405L78.5225 13.1167Z" fill="#160F3E"/>
<path d="M95.2317 7.48965L91.7227 15.1371L88.2215 7.48965H84.4523V21.0168H87.433V11.9724L90.7133 18.9411H92.6926L95.965 11.9724V21.0168H98.9457V7.48965H95.2317Z" fill="#160F3E"/>
<path d="M104.686 15.2634H109.552L109.63 15.0345L110.466 12.73H104.686V10.023H110.025L110.932 7.48965H101.611V21.0168H110.861V18.4834H104.686V15.2634Z" fill="#160F3E"/>
<path d="M121.182 7.48965V15.879L116.128 7.48965H113.163V21.0168H116.144V12.5169L121.143 21.0168H124.163V7.48965H121.182Z" fill="#160F3E"/>
<path d="M33.4654 7.48965V10.023H37.2188V21.0168H40.302V10.023H43.401L44.3157 7.48965H33.4654Z" fill="#160F3E"/>
<path d="M6.53676 15.6186H2.19191C2.11077 15.6184 2.03085 15.5987 1.95894 15.5611C1.88703 15.5235 1.82524 15.4691 1.77881 15.4025C1.73238 15.3359 1.70269 15.259 1.69224 15.1785C1.68179 15.098 1.6909 15.0161 1.71879 14.9398L4.87295 6.25851C4.90084 6.18224 4.90995 6.10037 4.8995 6.01984C4.88905 5.9393 4.85935 5.86248 4.81292 5.79587C4.7665 5.72927 4.70471 5.67485 4.63279 5.63723C4.56088 5.59962 4.48097 5.57991 4.39982 5.57978H0.543865C0.459455 5.58637 0.374747 5.57159 0.29754 5.53681C0.220334 5.50203 0.15311 5.44837 0.102059 5.38077C0.0510089 5.31317 0.017772 5.2338 0.0054092 5.14997C-0.00695362 5.06614 0.00195498 4.98054 0.0313147 4.90106L1.69513 0.363089C1.73305 0.255706 1.80366 0.162926 1.89702 0.0978034C1.99038 0.0326806 2.10178 -0.00150702 2.21557 5.09801e-05H16.7957C16.8759 0.000622921 16.9548 0.0203157 17.0258 0.0574972C17.0969 0.0946788 17.1581 0.148278 17.2044 0.213854C17.2506 0.279429 17.2806 0.355092 17.2918 0.434572C17.303 0.514052 17.2951 0.595059 17.2688 0.670882L15.6286 5.22464C15.5913 5.32864 15.5228 5.41856 15.4324 5.48213C15.3421 5.54569 15.2344 5.5798 15.124 5.57978H10.8501C10.745 5.58116 10.6429 5.61431 10.557 5.67488C10.4712 5.73545 10.4057 5.8206 10.3691 5.91914L7.01777 15.2871C6.98085 15.3848 6.915 15.4689 6.82905 15.5281C6.74309 15.5873 6.64112 15.6189 6.53676 15.6186Z" fill="#EE4023"/>
<path d="M18.7749 8.37358H12.6479C12.5433 8.37212 12.4408 8.40323 12.3547 8.46261C12.2685 8.52199 12.2029 8.60672 12.1669 8.70505L8.76833 18.073C8.73269 18.1722 8.6674 18.2579 8.58134 18.3187C8.49527 18.3794 8.39262 18.4121 8.28732 18.4124H3.46146C3.36966 18.4122 3.27956 18.4372 3.20087 18.4845C3.12217 18.5318 3.05787 18.5997 3.01488 18.6809C2.97189 18.7621 2.95184 18.8535 2.95689 18.9452C2.96194 19.037 2.99189 19.1256 3.04353 19.2016L6.07941 23.7711C6.12735 23.842 6.192 23.8999 6.26764 23.9399C6.34329 23.9798 6.42759 24.0004 6.51311 24H11.6859C11.7892 23.9998 11.8899 23.968 11.9745 23.9087C12.0591 23.8494 12.1235 23.7656 12.159 23.6685L15.5182 14.3006C15.5548 14.202 15.6203 14.1169 15.7062 14.0563C15.7921 13.9957 15.8942 13.9626 15.9992 13.9612H21.8187C21.9105 13.9613 22.0006 13.9364 22.0792 13.8891C22.1579 13.8417 22.2222 13.7738 22.2652 13.6926C22.3082 13.6115 22.3283 13.5201 22.3232 13.4283C22.3182 13.3366 22.2882 13.248 22.2366 13.172L19.2086 8.62613C19.164 8.55036 19.1007 8.48734 19.0247 8.44311C18.9488 8.39889 18.8627 8.37494 18.7749 8.37358Z" fill="#160F3E"/>
</svg>
